REM DIRINDEX 1\2,1\3
REM DIRNAME cjc102,folder01,folder02
TITLE ""
FILE "CD2Track31.mp3" MP3
  TRACK 01 AUDIO
    TITLE "0:"
    INDEX 01 00:00:00
  TRACK 02 AUDIO
    TITLE "2:cjc102_3790"
    INDEX 01 00:00:27
  TRACK 03 AUDIO
    TITLE "0:"
    INDEX 01 00:01:11
  TRACK 04 AUDIO
    TITLE "3:cjc102_3791"
    INDEX 01 00:01:17
  TRACK 05 AUDIO
    TITLE "0:"
    INDEX 01 00:02:55
  TRACK 06 AUDIO
    TITLE "3:cjc102_3792"
    INDEX 01 00:03:39
  TRACK 07 AUDIO
    TITLE "0:"
    INDEX 01 00:07:21
  TRACK 08 AUDIO
    TITLE "2:cjc102_3793"
    INDEX 01 00:07:23
  TRACK 09 AUDIO
    TITLE "0:"
    INDEX 01 00:08:28
  TRACK 10 AUDIO
    TITLE "3:cjc102_3794"
    INDEX 01 00:08:72
  TRACK 11 AUDIO
    TITLE "0:"
    INDEX 01 00:09:65
  TRACK 12 AUDIO
    TITLE "2:cjc102_3795"
    INDEX 01 00:09:67
  TRACK 13 AUDIO
    TITLE "0:"
    INDEX 01 00:11:03
  TRACK 14 AUDIO
    TITLE "3:cjc102_3796"
    INDEX 01 00:11:74
  TRACK 15 AUDIO
    TITLE "0:"
    INDEX 01 00:12:58
  TRACK 16 AUDIO
    TITLE "2:cjc102_3797"
    INDEX 01 00:13:00
  TRACK 17 AUDIO
    TITLE "0:"
    INDEX 01 00:13:69
  TRACK 18 AUDIO
    TITLE "3:cjc102_3798"
    INDEX 01 00:14:68
  TRACK 19 AUDIO
    TITLE "0:"
    INDEX 01 00:15:68
  TRACK 20 AUDIO
    TITLE "2:cjc102_3799"
    INDEX 01 00:15:72
  TRACK 21 AUDIO
    TITLE "0:"
    INDEX 01 00:17:12
  TRACK 22 AUDIO
    TITLE "3:cjc102_3800"
    INDEX 01 00:17:72
  TRACK 23 AUDIO
    TITLE "0:"
    INDEX 01 00:18:68
  TRACK 24 AUDIO
    TITLE "2:cjc102_3801"
    INDEX 01 00:19:07
  TRACK 25 AUDIO
    TITLE "0:"
    INDEX 01 00:20:14
  TRACK 26 AUDIO
    TITLE "3:cjc102_3802"
    INDEX 01 00:21:09
  TRACK 27 AUDIO
    TITLE "0:"
    INDEX 01 00:21:64
  TRACK 28 AUDIO
    TITLE "2:cjc102_3803"
    INDEX 01 00:22:21
  TRACK 29 AUDIO
    TITLE "0:"
    INDEX 01 00:23:28
  TRACK 30 AUDIO
    TITLE "3:cjc102_3804"
    INDEX 01 00:24:53
  TRACK 31 AUDIO
    TITLE "0:"
    INDEX 01 00:25:45
  TRACK 32 AUDIO
    TITLE "2:cjc102_3805"
    INDEX 01 00:25:50
  TRACK 33 AUDIO
    TITLE "0:"
    INDEX 01 00:26:56
  TRACK 34 AUDIO
    TITLE "3:cjc102_3806"
    INDEX 01 00:27:71
  TRACK 35 AUDIO
    TITLE "0:"
    INDEX 01 00:28:62
  TRACK 36 AUDIO
    TITLE "2:cjc102_3807"
    INDEX 01 00:28:66
  TRACK 37 AUDIO
    TITLE "0:"
    INDEX 01 00:29:60
  TRACK 38 AUDIO
    TITLE "3:cjc102_3808"
    INDEX 01 00:31:00
  TRACK 39 AUDIO
    TITLE "0:"
    INDEX 01 00:31:69
  TRACK 40 AUDIO
    TITLE "2:cjc102_3809"
    INDEX 01 00:32:17
  TRACK 41 AUDIO
    TITLE "0:"
    INDEX 01 00:33:26
  TRACK 42 AUDIO
    TITLE "3:cjc102_3810"
    INDEX 01 00:33:71
  TRACK 43 AUDIO
    TITLE "0:"
    INDEX 01 00:34:65
  TRACK 44 AUDIO
    TITLE "2:cjc102_3811"
    INDEX 01 00:35:59
  TRACK 45 AUDIO
    TITLE "0:"
    INDEX 01 00:37:12
  TRACK 46 AUDIO
    TITLE "3:cjc102_3812"
    INDEX 01 00:37:57
  TRACK 47 AUDIO
    TITLE "0:"
    INDEX 01 00:38:53
  TRACK 48 AUDIO
    TITLE "2:cjc102_3813"
    INDEX 01 00:39:13
  TRACK 49 AUDIO
    TITLE "0:"
    INDEX 01 00:40:38
  TRACK 50 AUDIO
    TITLE "3:cjc102_3814"
    INDEX 01 00:40:73
  TRACK 51 AUDIO
    TITLE "0:"
    INDEX 01 00:42:14
  TRACK 52 AUDIO
    TITLE "2:cjc102_3815"
    INDEX 01 00:42:43
  TRACK 53 AUDIO
    TITLE "0:"
    INDEX 01 00:43:62
  TRACK 54 AUDIO
    TITLE "3:cjc102_3816"
    INDEX 01 00:44:48
  TRACK 55 AUDIO
    TITLE "0:"
    INDEX 01 00:45:61
  TRACK 56 AUDIO
    TITLE "2:cjc102_3817"
    INDEX 01 00:45:73
  TRACK 57 AUDIO
    TITLE "0:"
    INDEX 01 00:47:17
  TRACK 58 AUDIO
    TITLE "3:cjc102_3818"
    INDEX 01 00:48:36
  TRACK 59 AUDIO
    TITLE "0:"
    INDEX 01 00:49:49
  TRACK 60 AUDIO
    TITLE "2:cjc102_3819"
    INDEX 01 00:49:53
  TRACK 61 AUDIO
    TITLE "0:"
    INDEX 01 00:50:60
  TRACK 62 AUDIO
    TITLE "3:cjc102_3820"
    INDEX 01 00:51:22
  TRACK 63 AUDIO
    TITLE "0:"
    INDEX 01 00:52:41
  TRACK 64 AUDIO
    TITLE "2:cjc102_3821"
    INDEX 01 00:53:13
  TRACK 65 AUDIO
    TITLE "0:"
    INDEX 01 00:54:25
  TRACK 66 AUDIO
    TITLE "3:cjc102_3822"
    INDEX 01 00:55:06
  TRACK 67 AUDIO
    TITLE "0:"
    INDEX 01 00:56:16
  TRACK 68 AUDIO
    TITLE "2:cjc102_3823"
    INDEX 01 00:56:74
  TRACK 69 AUDIO
    TITLE "0:"
    INDEX 01 00:58:18
  TRACK 70 AUDIO
    TITLE "3:cjc102_3824"
    INDEX 01 00:59:69
  TRACK 71 AUDIO
    TITLE "0:"
    INDEX 01 01:00:64
  TRACK 72 AUDIO
    TITLE "2:cjc102_3825"
    INDEX 01 01:00:66
  TRACK 73 AUDIO
    TITLE "0:"
    INDEX 01 01:01:70
  TRACK 74 AUDIO
    TITLE "3:cjc102_3826"
    INDEX 01 01:04:31
  TRACK 75 AUDIO
    TITLE "0:"
    INDEX 01 01:05:54
  TRACK 76 AUDIO
    TITLE "2:cjc102_3827"
    INDEX 01 01:06:18
  TRACK 77 AUDIO
    TITLE "0:"
    INDEX 01 01:07:43
  TRACK 78 AUDIO
    TITLE "2:cjc102_3828"
    INDEX 01 01:08:46
  TRACK 79 AUDIO
    TITLE "0:"
    INDEX 01 01:09:63
  TRACK 80 AUDIO
    TITLE "3:cjc102_3829"
    INDEX 01 01:10:69
  TRACK 81 AUDIO
    TITLE "0:"
    INDEX 01 01:12:17
  TRACK 82 AUDIO
    TITLE "2:cjc102_3830"
    INDEX 01 01:12:68
  TRACK 83 AUDIO
    TITLE "0:"
    INDEX 01 01:14:14
  TRACK 84 AUDIO
    TITLE "2:cjc102_3831"
    INDEX 01 01:15:01
  TRACK 85 AUDIO
    TITLE "0:"
    INDEX 01 01:16:16
  TRACK 86 AUDIO
    TITLE "3:cjc102_3832"
    INDEX 01 01:17:06
  TRACK 87 AUDIO
    TITLE "0:"
    INDEX 01 01:18:29
  TRACK 88 AUDIO
    TITLE "2:cjc102_3833"
    INDEX 01 01:18:33
  TRACK 89 AUDIO
    TITLE "0:"
    INDEX 01 01:19:40
  TRACK 90 AUDIO
    TITLE "2:cjc102_3834"
    INDEX 01 01:20:28
  TRACK 91 AUDIO
    TITLE "0:"
    INDEX 01 01:21:41
  TRACK 92 AUDIO
    TITLE "3:cjc102_3835"
    INDEX 01 01:23:07
  TRACK 93 AUDIO
    TITLE "0:"
    INDEX 01 01:24:20
  TRACK 94 AUDIO
    TITLE "2:cjc102_3836"
    INDEX 01 01:24:34
  TRACK 95 AUDIO
    TITLE "0:"
    INDEX 01 01:25:45
  TRACK 96 AUDIO
    TITLE "2:cjc102_3837"
    INDEX 01 01:26:36
  TRACK 97 AUDIO
    TITLE "0:"
    INDEX 01 01:27:46
  TRACK 98 AUDIO
    TITLE "3:cjc102_3838"
    INDEX 01 01:28:55
  TRACK 99 AUDIO
    TITLE "0:"
    INDEX 01 01:30:09
  TRACK 100 AUDIO
    TITLE "2:cjc102_3839"
    INDEX 01 01:30:17
  TRACK 101 AUDIO
    TITLE "0:"
    INDEX 01 01:31:26
  TRACK 102 AUDIO
    TITLE "2:cjc102_3840"
    INDEX 01 01:32:15
  TRACK 103 AUDIO
    TITLE "0:"
    INDEX 01 01:33:17
  TRACK 104 AUDIO
    TITLE "3:cjc102_3841"
    INDEX 01 01:34:44
  TRACK 105 AUDIO
    TITLE "0:"
    INDEX 01 01:35:65
  TRACK 106 AUDIO
    TITLE "2:cjc102_3842"
    INDEX 01 01:35:67
  TRACK 107 AUDIO
    TITLE "0:"
    INDEX 01 01:36:58
  TRACK 108 AUDIO
    TITLE "2:cjc102_3843"
    INDEX 01 01:37:60
  TRACK 109 AUDIO
    TITLE "0:"
    INDEX 01 01:38:55
  TRACK 110 AUDIO
    TITLE "3:cjc102_3844"
    INDEX 01 01:40:48
  TRACK 111 AUDIO
    TITLE "0:"
    INDEX 01 01:42:00
  TRACK 112 AUDIO
    TITLE "2:cjc102_3845"
    INDEX 01 01:42:02
  TRACK 113 AUDIO
    TITLE "0:"
    INDEX 01 01:44:40
  TRACK 114 AUDIO
    TITLE "3:cjc102_3846"
    INDEX 01 01:45:28
  TRACK 115 AUDIO
    TITLE "0:"
    INDEX 01 01:46:51
  TRACK 116 AUDIO
    TITLE "2:cjc102_3847"
    INDEX 01 01:46:57
  TRACK 117 AUDIO
    TITLE "0:"
    INDEX 01 01:49:63
  TRACK 118 AUDIO
    TITLE "3:cjc102_3848"
    INDEX 01 01:50:70
  TRACK 119 AUDIO
    TITLE "0:"
    INDEX 01 01:52:18
  TRACK 120 AUDIO
    TITLE "2:cjc102_3849"
    INDEX 01 01:52:28
  TRACK 121 AUDIO
    TITLE "0:"
    INDEX 01 01:56:28
